<svg id="Logo_2" data-name="Logo 2" xmlns="http://www.w3.org/2000/svg" viewBox="0 0 260 89.53">
  <title>Petraller-Studios</title>
  <g>
    <polygon points="0 89.53 0 12.8 29.6 12.8 29.6 42.4 10.4 42.4 10.4 36.8 24 36.8 24 18.4 5.6 18.4 5.6 89.53 0 89.53" style="fill: #009ace"/>
    <polygon points="32 42.4 32 12.8 61.6 12.8 61.6 29.8 43.4 29.8 43.4 24.2 56 24.2 56 18.4 37.6 18.4 37.6 36.8 61.6 36.8 61.6 42.4 32 42.4" style="fill: #009ace"/>
    <polygon points="70.4 42.4 70.4 18.4 64 18.4 64 12.8 70.4 12.8 70.4 0 76 0 76 12.8 87.2 12.8 87.2 18.4 76 18.4 76 36.8 93.6 36.8 93.6 42.4 70.4 42.4" style="fill: #009ace"/>
    <polygon points="96 42.4 96 12.8 125.6 12.8 125.6 18.4 101.6 18.4 101.6 42.4 96 42.4" style="fill: #009ace"/>
    <polygon points="128 42.4 128 24.2 146.2 24.2 146.2 29.8 133.6 29.8 133.6 36.8 152 36.8 152 18.4 128 18.4 128 12.8 157.6 12.8 157.6 42.4 128 42.4" style="fill: #009ace"/>
    <polygon points="160 42.4 160 0 165.6 0 165.6 36.8 176.8 36.8 176.8 42.4 160 42.4" style="fill: #009ace"/>
    <polygon points="179.2 42.4 179.2 0 184.8 0 184.8 36.8 196 36.8 196 42.4 179.2 42.4" style="fill: #009ace"/>
    <polygon points="198.4 42.4 198.4 12.8 228 12.8 228 29.8 209.8 29.8 209.8 24.2 222.4 24.2 222.4 18.4 204 18.4 204 36.8 228 36.8 228 42.4 198.4 42.4" style="fill: #009ace"/>
    <polygon points="230.4 89.53 230.4 12.8 260 12.8 260 18.4 236 18.4 236 89.53 230.4 89.53" style="fill: #009ace"/>
  </g>
  <g>
    <polygon points="7.58 89.53 7.58 83.93 31.58 83.93 31.58 76.93 7.58 76.93 7.58 59.93 37.18 59.93 37.18 65.53 13.18 65.53 13.18 71.33 37.18 71.33 37.18 89.53 7.58 89.53" style="fill: #b5b7b7"/>
    <polygon points="47.98 89.53 47.98 65.53 41.58 65.53 41.58 59.93 47.98 59.93 47.98 47.13 53.58 47.13 53.58 59.93 64.78 59.93 64.78 65.53 53.58 65.53 53.58 83.93 71.18 83.93 71.18 89.53 47.98 89.53" style="fill: #b5b7b7"/>
    <polygon points="75.58 89.53 75.58 59.93 81.18 59.93 81.18 83.93 99.58 83.93 99.58 59.93 105.18 59.93 105.18 89.53 75.58 89.53" style="fill: #b5b7b7"/>
    <polygon points="109.58 89.53 109.58 59.93 127.78 59.93 127.78 65.53 115.18 65.53 115.18 83.93 133.58 83.93 133.58 47.13 139.18 47.13 139.18 89.53 109.58 89.53" style="fill: #b5b7b7"/>
    <path d="M1165.92,409.27v-24h-11.2v-5.6h16.8v29.6h-5.6Zm-11.2-36.8v-5.6h13.6v5.6h-13.6Z" transform="translate(-1011.13 -319.73)" style="fill: #b5b7b7"/>
    <path d="M1175.92,409.27v-29.6h29.6v29.6h-29.6Zm24-5.6v-18.4h-18.4v18.4h18.4Z" transform="translate(-1011.13 -319.73)" style="fill: #b5b7b7"/>
    <polygon points="198.78 89.53 198.78 83.93 222.78 83.93 222.78 76.93 198.78 76.93 198.78 59.93 228.38 59.93 228.38 65.53 204.38 65.53 204.38 71.33 228.38 71.33 228.38 89.53 198.78 89.53" style="fill: #b5b7b7"/>
  </g>
</svg>
